<svg width="256" height="256" viewBox="0 0 256 256" fill="none" xmlns="http://www.w3.org/2000/svg">
<path d="M27 77C27 52.1472 47.1472 32 72 32H187V192H27V77Z" fill="white"/>
<path d="M187 32V192H27V77C27 52.1472 47.1472 32 72 32H187ZM33 186H181V38H72C50.4609 38 33 55.4609 33 77V186Z" fill="black"/>
<path d="M107 112H227V208C227 221.255 216.255 232 203 232H107V112Z" fill="black"/>
<path d="M221 208V118H113V226H203V232H107V112H227V208C227 221.048 216.588 231.664 203.619 231.992L203 232V226C212.941 226 221 217.941 221 208Z" fill="white"/>
<path d="M107 112H187V192H107V112Z" fill="#A060D1"/>
</svg>
